<svg width="57" height="77" viewBox="0 0 57 77" fill="none" xmlns="http://www.w3.org/2000/svg">
<g filter="url(#filter0_d_520_1383)">
<path fill-rule="evenodd" clip-rule="evenodd" d="M45.321 33.1484C47.3037 30.0438 48.4528 26.3553 48.4528 22.3984C48.4528 11.3527 39.4985 2.39844 28.4528 2.39844C17.4071 2.39844 8.45276 11.3527 8.45276 22.3984C8.45276 26.3553 9.60184 30.0438 11.5845 33.1484H11.5653L28.4528 62.3984L45.3403 33.1484H45.321Z" fill="#FE7762"/>
<rect width="24" height="24" transform="translate(16.4528 12.3984)" fill="#FE7762"/>
<path d="M36.4528 15.3984H22.4528C21.3528 15.3984 20.4528 16.2984 20.4528 17.3984V25.3984C20.4528 27.6084 22.2428 29.3984 24.4528 29.3984H30.4528C32.6628 29.3984 34.4528 27.6084 34.4528 25.3984V22.3984H36.4528C37.5528 22.3984 38.4528 21.4984 38.4528 20.3984V17.3984C38.4528 16.2984 37.5528 15.3984 36.4528 15.3984ZM36.4528 20.3984H34.4528V17.3984H36.4528V20.3984ZM19.4528 33.3984H35.4528C36.0028 33.3984 36.4528 32.9484 36.4528 32.3984C36.4528 31.8484 36.0028 31.3984 35.4528 31.3984H19.4528C18.9028 31.3984 18.4528 31.8484 18.4528 32.3984C18.4528 32.9484 18.9028 33.3984 19.4528 33.3984Z" fill="white"/>
</g>
<defs>
<filter id="filter0_d_520_1383" x="0.452759" y="0.398438" width="56" height="76" filterUnits="userSpaceOnUse" color-interpolation-filters="sRGB">
<feFlood flood-opacity="0" result="BackgroundImageFix"/>
<feColorMatrix in="SourceAlpha" type="matrix" values="0 0 0 0 0 0 0 0 0 0 0 0 0 0 0 0 0 0 127 0" result="hardAlpha"/>
<feOffset dy="6"/>
<feGaussianBlur stdDeviation="4"/>
<feComposite in2="hardAlpha" operator="out"/>
<feColorMatrix type="matrix" values="0 0 0 0 0 0 0 0 0 0 0 0 0 0 0 0 0 0 0.25 0"/>
<feBlend mode="multiply" in2="BackgroundImageFix" result="effect1_dropShadow_520_1383"/>
<feBlend mode="normal" in="SourceGraphic" in2="effect1_dropShadow_520_1383" result="shape"/>
</filter>
</defs>
</svg>
