<svg width="117" height="36" viewBox="0 0 117 36" fill="none" xmlns="http://www.w3.org/2000/svg">
<rect x="0.138184" y="0.354248" width="116.862" height="35" rx="12" fill="#EE6B56"/>
<path d="M28.05 8.10425H12.8834C11.6917 8.10425 10.7167 9.07925 10.7167 10.2709V18.9376C10.7167 21.3317 12.6559 23.2709 15.05 23.2709H21.55C23.9442 23.2709 25.8834 21.3317 25.8834 18.9376V15.6876H28.05C29.2417 15.6876 30.2167 14.7126 30.2167 13.5209V10.2709C30.2167 9.07925 29.2417 8.10425 28.05 8.10425ZM28.05 13.5209H25.8834V10.2709H28.05V13.5209ZM9.63338 27.6042H26.9667C27.5625 27.6042 28.05 27.1167 28.05 26.5209C28.05 25.9251 27.5625 25.4376 26.9667 25.4376H9.63338C9.03755 25.4376 8.55005 25.9251 8.55005 26.5209C8.55005 27.1167 9.03755 27.6042 9.63338 27.6042Z" fill="white"/>
<path d="M41.4051 12.9042V13.9092H46.2501C46.2051 14.7342 46.0701 15.5142 45.8451 16.2642L40.7301 16.6092L40.9401 17.6892L45.4701 17.2542C44.6451 19.0542 43.1601 20.5842 40.6701 21.8142L41.3451 22.7592C46.1601 20.3592 47.4801 16.8042 47.4801 12.9042H41.4051ZM53.0601 16.9692H50.9001V11.5092H49.6701V24.9642H50.9001V17.9892H53.0601V16.9692ZM55.954 14.2092H57.634V20.5242C57.064 20.5542 56.509 20.5692 55.954 20.5842V14.2092ZM58.759 14.2092H59.869V13.2192H53.719V14.2092H54.829V20.6142C54.319 20.6292 53.869 20.6292 53.464 20.6292L53.584 21.6492C55.339 21.6492 58.159 21.5892 60.244 21.1992L60.169 20.2992C59.734 20.3592 59.239 20.4042 58.759 20.4492V14.2092ZM61.309 16.6392H59.464V17.7192H61.309V24.2592H62.464V11.8392H61.309V16.6392ZM63.904 11.5242V24.9642H65.089V11.5242H63.904ZM70.8928 13.1442L66.8878 23.8542H66.0328L70.0378 13.1442H70.8928ZM73.183 13.8192H78.328V12.7842H71.968V21.6492H73.048C75.763 21.6492 77.518 21.5592 79.588 21.1842L79.453 20.1492C77.473 20.5242 75.778 20.5992 73.183 20.5992V13.8192ZM80.878 11.5092V24.9942H82.108V11.5092H80.878ZM88.7968 13.8942H91.8568V12.8892H84.5218V13.8942H87.5668V15.4542C87.5668 17.8392 85.9618 20.3892 84.0418 21.3342L84.7618 22.3092C86.2918 21.4992 87.5968 19.7742 88.1818 17.7942C88.7968 19.6542 90.0868 21.2592 91.5868 22.0242L92.3218 21.0642C90.3718 20.1342 88.7968 17.6892 88.7968 15.4542V13.8942ZM94.0018 11.5092V16.3992H91.0918V17.4042H94.0018V24.9792H95.2318V11.5092H94.0018ZM107.996 18.7692H100.001V16.6392H107.561V15.6642H100.001V13.6692H107.861V12.6792H98.7556V19.7592H107.996V18.7692ZM97.1806 22.2192V23.2242H109.391V22.2192H97.1806Z" fill="white"/>
</svg>
