<svg width="65" height="65" viewBox="0 0 65 65" fill="none" xmlns="http://www.w3.org/2000/svg">
<circle cx="32.5854" cy="32.3677" r="32" fill="#EDEDED"/>
<rect width="43" height="43" transform="translate(12.0854 10.8677)" fill="#EDEDED"/>
<path d="M47.9187 16.2427H22.8354C20.8645 16.2427 19.252 17.8552 19.252 19.826V34.1593C19.252 38.1189 22.4591 41.326 26.4187 41.326H37.1687C41.1283 41.326 44.3354 38.1189 44.3354 34.1593V28.7843H47.9187C49.8895 28.7843 51.502 27.1718 51.502 25.201V19.826C51.502 17.8552 49.8895 16.2427 47.9187 16.2427ZM47.9187 25.201H44.3354V19.826H47.9187V25.201ZM17.4604 48.4927H46.127C47.1125 48.4927 47.9187 47.6864 47.9187 46.701C47.9187 45.7156 47.1125 44.9093 46.127 44.9093H17.4604C16.475 44.9093 15.6687 45.7156 15.6687 46.701C15.6687 47.6864 16.475 48.4927 17.4604 48.4927Z" fill="white"/>
</svg>
