<svg width="118" height="36" viewBox="0 0 118 36" fill="none" xmlns="http://www.w3.org/2000/svg">
<rect x="0.529663" y="0.163086" width="116.862" height="35" rx="12" fill="#EDEDED"/>
<path d="M28.4413 7.91309H13.2747C12.083 7.91309 11.108 8.88809 11.108 10.0798V18.7464C11.108 21.1406 13.0472 23.0798 15.4413 23.0798H21.9413C24.3355 23.0798 26.2747 21.1406 26.2747 18.7464V15.4964H28.4413C29.633 15.4964 30.608 14.5214 30.608 13.3298V10.0798C30.608 8.88809 29.633 7.91309 28.4413 7.91309ZM28.4413 13.3298H26.2747V10.0798H28.4413V13.3298ZM10.0247 27.4131H27.358C27.9538 27.4131 28.4413 26.9256 28.4413 26.3298C28.4413 25.7339 27.9538 25.2464 27.358 25.2464H10.0247C9.42885 25.2464 8.94135 25.7339 8.94135 26.3298C8.94135 26.9256 9.42885 27.4131 10.0247 27.4131Z" fill="white"/>
<path d="M41.7966 12.7131V13.7181H46.6416C46.5966 14.5431 46.4616 15.3231 46.2366 16.0731L41.1216 16.4181L41.3316 17.4981L45.8616 17.0631C45.0366 18.8631 43.5516 20.3931 41.0616 21.6231L41.7366 22.5681C46.5516 20.1681 47.8716 16.6131 47.8716 12.7131H41.7966ZM53.4516 16.7781H51.2916V11.3181H50.0616V24.7731H51.2916V17.7981H53.4516V16.7781ZM56.3454 14.0181H58.0254V20.3331C57.4554 20.3631 56.9004 20.3781 56.3454 20.3931V14.0181ZM59.1504 14.0181H60.2604V13.0281H54.1104V14.0181H55.2204V20.4231C54.7104 20.4381 54.2604 20.4381 53.8554 20.4381L53.9754 21.4581C55.7304 21.4581 58.5504 21.3981 60.6354 21.0081L60.5604 20.1081C60.1254 20.1681 59.6304 20.2131 59.1504 20.2581V14.0181ZM61.7004 16.4481H59.8554V17.5281H61.7004V24.0681H62.8554V11.6481H61.7004V16.4481ZM64.2954 11.3331V24.7731H65.4804V11.3331H64.2954ZM71.2843 12.9531L67.2793 23.6631H66.4243L70.4293 12.9531H71.2843ZM73.5745 13.6281H78.7195V12.5931H72.3595V21.4581H73.4395C76.1545 21.4581 77.9095 21.3681 79.9795 20.9931L79.8445 19.9581C77.8645 20.3331 76.1695 20.4081 73.5745 20.4081V13.6281ZM81.2695 11.3181V24.8031H82.4995V11.3181H81.2695ZM89.1883 13.7031H92.2483V12.6981H84.9133V13.7031H87.9583V15.2631C87.9583 17.6481 86.3533 20.1981 84.4333 21.1431L85.1533 22.1181C86.6833 21.3081 87.9883 19.5831 88.5733 17.6031C89.1883 19.4631 90.4783 21.0681 91.9783 21.8331L92.7133 20.8731C90.7633 19.9431 89.1883 17.4981 89.1883 15.2631V13.7031ZM94.3933 11.3181V16.2081H91.4833V17.2131H94.3933V24.7881H95.6233V11.3181H94.3933ZM108.387 18.5781H100.392V16.4481H107.952V15.4731H100.392V13.4781H108.252V12.4881H99.1471V19.5681H108.387V18.5781ZM97.5721 22.0281V23.0331H109.782V22.0281H97.5721Z" fill="white"/>
</svg>
