<svg width="118" height="36" viewBox="0 0 118 36" fill="none" xmlns="http://www.w3.org/2000/svg">
<rect x="0.922211" y="0.189941" width="116.862" height="35" rx="12" fill="#FE7762"/>
<path d="M28.8339 7.93994H13.6672C12.4755 7.93994 11.5005 8.91494 11.5005 10.1066V18.7733C11.5005 21.1674 13.4397 23.1066 15.8339 23.1066H22.3339C24.728 23.1066 26.6672 21.1674 26.6672 18.7733V15.5233H28.8339C30.0255 15.5233 31.0005 14.5483 31.0005 13.3566V10.1066C31.0005 8.91494 30.0255 7.93994 28.8339 7.93994ZM28.8339 13.3566H26.6672V10.1066H28.8339V13.3566ZM10.4172 27.4399H27.7505C28.3464 27.4399 28.8339 26.9524 28.8339 26.3566C28.8339 25.7608 28.3464 25.2733 27.7505 25.2733H10.4172C9.82137 25.2733 9.33387 25.7608 9.33387 26.3566C9.33387 26.9524 9.82137 27.4399 10.4172 27.4399Z" fill="white"/>
<path d="M42.1892 12.7399V13.7449H47.0342C46.9892 14.5699 46.8542 15.3499 46.6292 16.0999L41.5142 16.4449L41.7242 17.5249L46.2542 17.0899C45.4292 18.8899 43.9442 20.4199 41.4542 21.6499L42.1292 22.5949C46.9442 20.1949 48.2642 16.6399 48.2642 12.7399H42.1892ZM53.8442 16.8049H51.6842V11.3449H50.4542V24.7999H51.6842V17.8249H53.8442V16.8049ZM56.738 14.0449H58.418V20.3599C57.848 20.3899 57.293 20.4049 56.738 20.4199V14.0449ZM59.543 14.0449H60.653V13.0549H54.503V14.0449H55.613V20.4499C55.103 20.4649 54.653 20.4649 54.248 20.4649L54.368 21.4849C56.123 21.4849 58.943 21.4249 61.028 21.0349L60.953 20.1349C60.518 20.1949 60.023 20.2399 59.543 20.2849V14.0449ZM62.093 16.4749H60.248V17.5549H62.093V24.0949H63.248V11.6749H62.093V16.4749ZM64.688 11.3599V24.7999H65.873V11.3599H64.688ZM71.6768 12.9799L67.6718 23.6899H66.8168L70.8218 12.9799H71.6768ZM73.967 13.6549H79.112V12.6199H72.752V21.4849H73.832C76.547 21.4849 78.302 21.3949 80.372 21.0199L80.237 19.9849C78.257 20.3599 76.562 20.4349 73.967 20.4349V13.6549ZM81.662 11.3449V24.8299H82.892V11.3449H81.662ZM89.5808 13.7299H92.6408V12.7249H85.3058V13.7299H88.3508V15.2899C88.3508 17.6749 86.7458 20.2249 84.8258 21.1699L85.5458 22.1449C87.0758 21.3349 88.3808 19.6099 88.9658 17.6299C89.5808 19.4899 90.8708 21.0949 92.3708 21.8599L93.1058 20.8999C91.1558 19.9699 89.5808 17.5249 89.5808 15.2899V13.7299ZM94.7858 11.3449V16.2349H91.8758V17.2399H94.7858V24.8149H96.0158V11.3449H94.7858ZM108.78 18.6049H100.785V16.4749H108.345V15.4999H100.785V13.5049H108.645V12.5149H99.5397V19.5949H108.78V18.6049ZM97.9647 22.0549V23.0599H110.175V22.0549H97.9647Z" fill="white"/>
</svg>
