<svg width="120" height="38" viewBox="0 0 120 38" fill="none" xmlns="http://www.w3.org/2000/svg">
<rect x="0.892944" y="1.41797" width="117.862" height="36" rx="12.5" fill="#C4C4C4" stroke="white"/>
<path d="M29.3046 9.66797H14.1379C12.9463 9.66797 11.9713 10.643 11.9713 11.8346V20.5013C11.9713 22.8955 13.9104 24.8346 16.3046 24.8346H22.8046C25.1988 24.8346 27.1379 22.8955 27.1379 20.5013V17.2513H29.3046C30.4963 17.2513 31.4713 16.2763 31.4713 15.0846V11.8346C31.4713 10.643 30.4963 9.66797 29.3046 9.66797ZM29.3046 15.0846H27.1379V11.8346H29.3046V15.0846ZM10.8879 29.168H28.2213C28.8171 29.168 29.3046 28.6805 29.3046 28.0846C29.3046 27.4888 28.8171 27.0013 28.2213 27.0013H10.8879C10.2921 27.0013 9.8046 27.4888 9.8046 28.0846C9.8046 28.6805 10.2921 29.168 10.8879 29.168Z" fill="white"/>
<path d="M42.6599 14.468V15.473H47.5049C47.4599 16.298 47.3249 17.078 47.0999 17.828L41.9849 18.173L42.1949 19.253L46.7249 18.818C45.8999 20.618 44.4149 22.148 41.9249 23.378L42.5999 24.323C47.4149 21.923 48.7349 18.368 48.7349 14.468H42.6599ZM54.3149 18.533H52.1549V13.073H50.9249V26.528H52.1549V19.553H54.3149V18.533ZM57.2087 15.773H58.8887V22.088C58.3187 22.118 57.7637 22.133 57.2087 22.148V15.773ZM60.0137 15.773H61.1237V14.783H54.9737V15.773H56.0837V22.178C55.5737 22.193 55.1237 22.193 54.7187 22.193L54.8387 23.213C56.5937 23.213 59.4137 23.153 61.4987 22.763L61.4237 21.863C60.9887 21.923 60.4937 21.968 60.0137 22.013V15.773ZM62.5637 18.203H60.7187V19.283H62.5637V25.823H63.7187V13.403H62.5637V18.203ZM65.1587 13.088V26.528H66.3437V13.088H65.1587ZM72.1475 14.708L68.1425 25.418H67.2875L71.2925 14.708H72.1475ZM74.4377 15.383H79.5827V14.348H73.2227V23.213H74.3027C77.0177 23.213 78.7727 23.123 80.8427 22.748L80.7077 21.713C78.7277 22.088 77.0327 22.163 74.4377 22.163V15.383ZM82.1327 13.073V26.558H83.3627V13.073H82.1327ZM90.0516 15.458H93.1116V14.453H85.7766V15.458H88.8216V17.018C88.8216 19.403 87.2166 21.953 85.2966 22.898L86.0166 23.873C87.5466 23.063 88.8516 21.338 89.4366 19.358C90.0516 21.218 91.3416 22.823 92.8416 23.588L93.5766 22.628C91.6266 21.698 90.0516 19.253 90.0516 17.018V15.458ZM95.2566 13.073V17.963H92.3466V18.968H95.2566V26.543H96.4866V13.073H95.2566ZM109.25 20.333H101.255V18.203H108.815V17.228H101.255V15.233H109.115V14.243H100.01V21.323H109.25V20.333ZM98.4354 23.783V24.788H110.645V23.783H98.4354Z" fill="white"/>
</svg>
