<svg width="57" height="77" viewBox="0 0 57 77" fill="none" xmlns="http://www.w3.org/2000/svg">
<g filter="url(#filter0_d_345_1683)">
<path fill-rule="evenodd" clip-rule="evenodd" d="M45.4753 33.489C47.458 30.3844 48.6071 26.6959 48.6071 22.739C48.6071 11.6933 39.6528 2.73901 28.6071 2.73901C17.5614 2.73901 8.60706 11.6933 8.60706 22.739C8.60706 26.6959 9.75614 30.3844 11.7388 33.489H11.7196L28.6071 62.739L45.4946 33.489H45.4753Z" fill="#FD7762"/>
<rect width="24" height="24" transform="translate(16.6071 12.739)" fill="#FD7762"/>
<path d="M36.6071 15.739H22.6071C21.5071 15.739 20.6071 16.639 20.6071 17.739V25.739C20.6071 27.949 22.3971 29.739 24.6071 29.739H30.6071C32.8171 29.739 34.6071 27.949 34.6071 25.739V22.739H36.6071C37.7071 22.739 38.6071 21.839 38.6071 20.739V17.739C38.6071 16.639 37.7071 15.739 36.6071 15.739ZM36.6071 20.739H34.6071V17.739H36.6071V20.739ZM19.6071 33.739H35.6071C36.1571 33.739 36.6071 33.289 36.6071 32.739C36.6071 32.189 36.1571 31.739 35.6071 31.739H19.6071C19.0571 31.739 18.6071 32.189 18.6071 32.739C18.6071 33.289 19.0571 33.739 19.6071 33.739Z" fill="white"/>
</g>
<defs>
<filter id="filter0_d_345_1683" x="0.607056" y="0.739014" width="56" height="76" filterUnits="userSpaceOnUse" color-interpolation-filters="sRGB">
<feFlood flood-opacity="0" result="BackgroundImageFix"/>
<feColorMatrix in="SourceAlpha" type="matrix" values="0 0 0 0 0 0 0 0 0 0 0 0 0 0 0 0 0 0 127 0" result="hardAlpha"/>
<feOffset dy="6"/>
<feGaussianBlur stdDeviation="4"/>
<feComposite in2="hardAlpha" operator="out"/>
<feColorMatrix type="matrix" values="0 0 0 0 0 0 0 0 0 0 0 0 0 0 0 0 0 0 0.25 0"/>
<feBlend mode="multiply" in2="BackgroundImageFix" result="effect1_dropShadow_345_1683"/>
<feBlend mode="normal" in="SourceGraphic" in2="effect1_dropShadow_345_1683" result="shape"/>
</filter>
</defs>
</svg>
