<svg width="118" height="36" viewBox="0 0 118 36" fill="none" xmlns="http://www.w3.org/2000/svg">
<rect x="0.745117" y="0.354248" width="116.862" height="35" rx="12" fill="#FAC9B8"/>
<path d="M28.6568 8.10425H13.4901C12.2984 8.10425 11.3234 9.07925 11.3234 10.2709V18.9376C11.3234 21.3317 13.2626 23.2709 15.6568 23.2709H22.1568C24.5509 23.2709 26.4901 21.3317 26.4901 18.9376V15.6876H28.6568C29.8484 15.6876 30.8234 14.7126 30.8234 13.5209V10.2709C30.8234 9.07925 29.8484 8.10425 28.6568 8.10425ZM28.6568 13.5209H26.4901V10.2709H28.6568V13.5209ZM10.2401 27.6042H27.5734C28.1693 27.6042 28.6568 27.1167 28.6568 26.5209C28.6568 25.9251 28.1693 25.4376 27.5734 25.4376H10.2401C9.64427 25.4376 9.15677 25.9251 9.15677 26.5209C9.15677 27.1167 9.64427 27.6042 10.2401 27.6042Z" fill="white"/>
<path d="M42.0121 12.9042V13.9092H46.8571C46.8121 14.7342 46.6771 15.5142 46.4521 16.2642L41.3371 16.6092L41.5471 17.6892L46.0771 17.2542C45.2521 19.0542 43.7671 20.5842 41.2771 21.8142L41.9521 22.7592C46.7671 20.3592 48.0871 16.8042 48.0871 12.9042H42.0121ZM53.6671 16.9692H51.5071V11.5092H50.2771V24.9642H51.5071V17.9892H53.6671V16.9692ZM56.5609 14.2092H58.2409V20.5242C57.6709 20.5542 57.1159 20.5692 56.5609 20.5842V14.2092ZM59.3659 14.2092H60.4759V13.2192H54.3259V14.2092H55.4359V20.6142C54.9259 20.6292 54.4759 20.6292 54.0709 20.6292L54.1909 21.6492C55.9459 21.6492 58.7659 21.5892 60.8509 21.1992L60.7759 20.2992C60.3409 20.3592 59.8459 20.4042 59.3659 20.4492V14.2092ZM61.9159 16.6392H60.0709V17.7192H61.9159V24.2592H63.0709V11.8392H61.9159V16.6392ZM64.5109 11.5242V24.9642H65.6959V11.5242H64.5109ZM71.4997 13.1442L67.4947 23.8542H66.6397L70.6447 13.1442H71.4997ZM73.7899 13.8192H78.9349V12.7842H72.5749V21.6492H73.6549C76.3699 21.6492 78.1249 21.5592 80.1949 21.1842L80.0599 20.1492C78.0799 20.5242 76.3849 20.5992 73.7899 20.5992V13.8192ZM81.4849 11.5092V24.9942H82.7149V11.5092H81.4849ZM89.4037 13.8942H92.4637V12.8892H85.1287V13.8942H88.1737V15.4542C88.1737 17.8392 86.5687 20.3892 84.6487 21.3342L85.3687 22.3092C86.8987 21.4992 88.2037 19.7742 88.7887 17.7942C89.4037 19.6542 90.6937 21.2592 92.1937 22.0242L92.9287 21.0642C90.9787 20.1342 89.4037 17.6892 89.4037 15.4542V13.8942ZM94.6087 11.5092V16.3992H91.6987V17.4042H94.6087V24.9792H95.8387V11.5092H94.6087ZM108.603 18.7692H100.608V16.6392H108.168V15.6642H100.608V13.6692H108.468V12.6792H99.3626V19.7592H108.603V18.7692ZM97.7876 22.2192V23.2242H109.998V22.2192H97.7876Z" fill="white"/>
</svg>
