<svg width="57" height="77" viewBox="0 0 57 77" fill="none" xmlns="http://www.w3.org/2000/svg">
<g filter="url(#filter0_d_256_1346)">
<path fill-rule="evenodd" clip-rule="evenodd" d="M45.4753 33.3945C47.458 30.2899 48.6071 26.6014 48.6071 22.6445C48.6071 11.5988 39.6528 2.64453 28.6071 2.64453C17.5614 2.64453 8.60706 11.5988 8.60706 22.6445C8.60706 26.6014 9.75614 30.2899 11.7388 33.3945H11.7196L28.6071 62.6445L45.4946 33.3945H45.4753Z" fill="#EE6B56"/>
<rect width="24" height="24" transform="translate(16.6071 12.6445)" fill="#EE6B56"/>
<path d="M36.6071 15.6445H22.6071C21.5071 15.6445 20.6071 16.5445 20.6071 17.6445V25.6445C20.6071 27.8545 22.3971 29.6445 24.6071 29.6445H30.6071C32.8171 29.6445 34.6071 27.8545 34.6071 25.6445V22.6445H36.6071C37.7071 22.6445 38.6071 21.7445 38.6071 20.6445V17.6445C38.6071 16.5445 37.7071 15.6445 36.6071 15.6445ZM36.6071 20.6445H34.6071V17.6445H36.6071V20.6445ZM19.6071 33.6445H35.6071C36.1571 33.6445 36.6071 33.1945 36.6071 32.6445C36.6071 32.0945 36.1571 31.6445 35.6071 31.6445H19.6071C19.0571 31.6445 18.6071 32.0945 18.6071 32.6445C18.6071 33.1945 19.0571 33.6445 19.6071 33.6445Z" fill="white"/>
</g>
<defs>
<filter id="filter0_d_256_1346" x="0.607056" y="0.644531" width="56" height="76" filterUnits="userSpaceOnUse" color-interpolation-filters="sRGB">
<feFlood flood-opacity="0" result="BackgroundImageFix"/>
<feColorMatrix in="SourceAlpha" type="matrix" values="0 0 0 0 0 0 0 0 0 0 0 0 0 0 0 0 0 0 127 0" result="hardAlpha"/>
<feOffset dy="6"/>
<feGaussianBlur stdDeviation="4"/>
<feComposite in2="hardAlpha" operator="out"/>
<feColorMatrix type="matrix" values="0 0 0 0 0 0 0 0 0 0 0 0 0 0 0 0 0 0 0.25 0"/>
<feBlend mode="multiply" in2="BackgroundImageFix" result="effect1_dropShadow_256_1346"/>
<feBlend mode="normal" in="SourceGraphic" in2="effect1_dropShadow_256_1346" result="shape"/>
</filter>
</defs>
</svg>
