<svg width="24" height="25" viewBox="0 0 24 25" fill="none" xmlns="http://www.w3.org/2000/svg">
<path d="M20 3.33594H6C4.9 3.33594 4 4.23594 4 5.33594V13.3359C4 15.5459 5.79 17.3359 8 17.3359H14C16.21 17.3359 18 15.5459 18 13.3359V10.3359H20C21.1 10.3359 22 9.43594 22 8.33594V5.33594C22 4.23594 21.1 3.33594 20 3.33594ZM20 8.33594H18V5.33594H20V8.33594ZM3 21.3359H19C19.55 21.3359 20 20.8859 20 20.3359C20 19.7859 19.55 19.3359 19 19.3359H3C2.45 19.3359 2 19.7859 2 20.3359C2 20.8859 2.45 21.3359 3 21.3359Z" fill="#FE7762"/>
</svg>
