<svg width="120" height="38" viewBox="0 0 120 38" fill="none" xmlns="http://www.w3.org/2000/svg">
<rect x="0.892944" y="1.33594" width="117.862" height="36" rx="12.5" fill="#FE7762" stroke="white"/>
<path d="M29.3046 9.58594H14.1379C12.9463 9.58594 11.9713 10.5609 11.9713 11.7526V20.4193C11.9713 22.8134 13.9104 24.7526 16.3046 24.7526H22.8046C25.1988 24.7526 27.1379 22.8134 27.1379 20.4193V17.1693H29.3046C30.4963 17.1693 31.4713 16.1943 31.4713 15.0026V11.7526C31.4713 10.5609 30.4963 9.58594 29.3046 9.58594ZM29.3046 15.0026H27.1379V11.7526H29.3046V15.0026ZM10.8879 29.0859H28.2213C28.8171 29.0859 29.3046 28.5984 29.3046 28.0026C29.3046 27.4068 28.8171 26.9193 28.2213 26.9193H10.8879C10.2921 26.9193 9.8046 27.4068 9.8046 28.0026C9.8046 28.5984 10.2921 29.0859 10.8879 29.0859Z" fill="white"/>
<path d="M42.6599 14.3859V15.3909H47.5049C47.4599 16.2159 47.3249 16.9959 47.0999 17.7459L41.9849 18.0909L42.1949 19.1709L46.7249 18.7359C45.8999 20.5359 44.4149 22.0659 41.9249 23.2959L42.5999 24.2409C47.4149 21.8409 48.7349 18.2859 48.7349 14.3859H42.6599ZM54.3149 18.4509H52.1549V12.9909H50.9249V26.4459H52.1549V19.4709H54.3149V18.4509ZM57.2087 15.6909H58.8887V22.0059C58.3187 22.0359 57.7637 22.0509 57.2087 22.0659V15.6909ZM60.0137 15.6909H61.1237V14.7009H54.9737V15.6909H56.0837V22.0959C55.5737 22.1109 55.1237 22.1109 54.7187 22.1109L54.8387 23.1309C56.5937 23.1309 59.4137 23.0709 61.4987 22.6809L61.4237 21.7809C60.9887 21.8409 60.4937 21.8859 60.0137 21.9309V15.6909ZM62.5637 18.1209H60.7187V19.2009H62.5637V25.7409H63.7187V13.3209H62.5637V18.1209ZM65.1587 13.0059V26.4459H66.3437V13.0059H65.1587ZM72.1475 14.6259L68.1425 25.3359H67.2875L71.2925 14.6259H72.1475ZM74.4377 15.3009H79.5827V14.2659H73.2227V23.1309H74.3027C77.0177 23.1309 78.7727 23.0409 80.8427 22.6659L80.7077 21.6309C78.7277 22.0059 77.0327 22.0809 74.4377 22.0809V15.3009ZM82.1327 12.9909V26.4759H83.3627V12.9909H82.1327ZM90.0516 15.3759H93.1116V14.3709H85.7766V15.3759H88.8216V16.9359C88.8216 19.3209 87.2166 21.8709 85.2966 22.8159L86.0166 23.7909C87.5466 22.9809 88.8516 21.2559 89.4366 19.2759C90.0516 21.1359 91.3416 22.7409 92.8416 23.5059L93.5766 22.5459C91.6266 21.6159 90.0516 19.1709 90.0516 16.9359V15.3759ZM95.2566 12.9909V17.8809H92.3466V18.8859H95.2566V26.4609H96.4866V12.9909H95.2566ZM109.25 20.2509H101.255V18.1209H108.815V17.1459H101.255V15.1509H109.115V14.1609H100.01V21.2409H109.25V20.2509ZM98.4354 23.7009V24.7059H110.645V23.7009H98.4354Z" fill="white"/>
</svg>
