<svg width="27" height="27" viewBox="0 0 27 27" fill="none" xmlns="http://www.w3.org/2000/svg">
<path d="M22.6372 3.58569H7.47049C6.27883 3.58569 5.30383 4.56069 5.30383 5.75236V14.419C5.30383 16.8132 7.24299 18.7524 9.63716 18.7524H16.1372C18.5313 18.7524 20.4705 16.8132 20.4705 14.419V11.169H22.6372C23.8288 11.169 24.8038 10.194 24.8038 9.00236V5.75236C24.8038 4.56069 23.8288 3.58569 22.6372 3.58569ZM22.6372 9.00236H20.4705V5.75236H22.6372V9.00236ZM4.22049 23.0857H21.5538C22.1497 23.0857 22.6372 22.5982 22.6372 22.0024C22.6372 21.4065 22.1497 20.919 21.5538 20.919H4.22049C3.62466 20.919 3.13716 21.4065 3.13716 22.0024C3.13716 22.5982 3.62466 23.0857 4.22049 23.0857Z" fill="#FE7762"/>
</svg>
