<svg width="91" height="36" viewBox="0 0 91 36" fill="none" xmlns="http://www.w3.org/2000/svg">
<rect x="0.529663" y="0.930664" width="90" height="35" rx="12" fill="#EDEDED"/>
<path d="M47.6995 12.3857C44.7895 12.3857 42.9745 13.3307 42.9745 14.9357C42.9745 16.5257 44.7895 17.4707 47.6995 17.4707C50.6095 17.4707 52.4245 16.5257 52.4245 14.9357C52.4245 13.3307 50.6095 12.3857 47.6995 12.3857ZM47.6995 13.3607C49.8295 13.3607 51.1645 13.9457 51.1645 14.9357C51.1645 15.9257 49.8295 16.5107 47.6995 16.5107C45.5695 16.5107 44.2345 15.9257 44.2345 14.9357C44.2345 13.9457 45.5695 13.3607 47.6995 13.3607ZM43.1245 20.9357V25.3607H52.3045V20.9357H43.1245ZM51.1045 21.9107V24.3707H44.3245V21.9107H51.1045ZM41.6245 18.6257V19.6157H53.7895V18.6257H41.6245ZM62.7883 18.4157C60.7933 17.7257 59.4133 15.9707 59.4133 14.0357V12.7157H58.1833V14.0357C58.1833 16.0457 56.8183 17.9207 54.7933 18.6557L55.4233 19.6307C56.9983 19.0307 58.2283 17.7857 58.8133 16.1957C59.4133 17.6807 60.6283 18.8357 62.1733 19.3907L62.7883 18.4157ZM56.7133 21.8657H64.4833V25.5557H65.7133V20.8757H56.7133V21.8657ZM64.4833 12.1007V20.1857H65.7133V12.1007H64.4833ZM75.6571 18.5657C73.7071 17.8757 72.3871 16.1957 72.3871 14.4407V13.9457H75.3421V12.9407H68.1571V13.9457H71.1571V14.4557C71.1571 16.3607 69.7621 18.1457 67.7671 18.8657L68.4121 19.8257C69.9871 19.2557 71.2171 18.0257 71.8021 16.4807C72.3871 17.8607 73.5421 18.9857 75.0421 19.5257L75.6571 18.5657ZM71.2621 21.5957H77.6071V24.3707H71.2621V21.5957ZM70.0621 25.3607H78.8071V20.6207H70.0621V25.3607ZM77.5621 12.0857V15.4607H74.9071V16.4807H77.5621V19.9607H78.8071V12.0857H77.5621Z" fill="white"/>
<path d="M31.3572 11.4307H27.4572V8.43066C27.4572 7.88066 27.0072 7.43066 26.4572 7.43066C25.9072 7.43066 25.4572 7.88066 25.4572 8.43066V11.4307H21.5572C20.9672 11.4307 20.5072 11.9407 20.5572 12.5307L20.6772 13.7407C24.3572 14.5907 27.4572 17.2007 27.4572 21.4307L27.4772 29.4307H29.1772C30.0172 29.4307 30.7072 28.7807 30.8072 27.9607L32.3472 12.5307C32.4072 11.9407 31.9472 11.4307 31.3572 11.4307ZM24.4572 27.4307H11.4572C10.9072 27.4307 10.4572 27.8807 10.4572 28.4307C10.4572 28.9807 10.9072 29.4307 11.4572 29.4307H24.4572C25.0072 29.4307 25.4572 28.9807 25.4572 28.4307C25.4572 27.8807 25.0072 27.4307 24.4572 27.4307ZM11.5572 21.4307H24.3572C24.9772 21.4307 25.4672 20.8707 25.3472 20.2707C24.6972 17.0407 21.3272 15.4207 17.9572 15.4207C14.5872 15.4207 11.2272 17.0407 10.5672 20.2707C10.4472 20.8707 10.9472 21.4307 11.5572 21.4307ZM24.4572 23.4307H11.4572C10.9072 23.4307 10.4572 23.8807 10.4572 24.4307C10.4572 24.9807 10.9072 25.4307 11.4572 25.4307H24.4572C25.0072 25.4307 25.4572 24.9807 25.4572 24.4307C25.4572 23.8807 25.0072 23.4307 24.4572 23.4307Z" fill="white"/>
</svg>
