<svg width="65" height="65" viewBox="0 0 65 65" fill="none" xmlns="http://www.w3.org/2000/svg">
<circle cx="32.489" cy="32.3677" r="32" fill="#EDEDED"/>
<path d="M48.5765 18.3413H42.239V13.4663C42.239 12.5726 41.5078 11.8413 40.614 11.8413C39.7203 11.8413 38.989 12.5726 38.989 13.4663V18.3413H32.6515C31.6928 18.3413 30.9453 19.1701 31.0265 20.1288L31.2215 22.0951C37.2015 23.4763 42.239 27.7176 42.239 34.5913L42.2715 47.5913H45.034C46.399 47.5913 47.5203 46.5351 47.6828 45.2026L50.1853 20.1288C50.2828 19.1701 49.5353 18.3413 48.5765 18.3413ZM37.364 44.3413H16.239C15.3453 44.3413 14.614 45.0726 14.614 45.9663C14.614 46.8601 15.3453 47.5913 16.239 47.5913H37.364C38.2578 47.5913 38.989 46.8601 38.989 45.9663C38.989 45.0726 38.2578 44.3413 37.364 44.3413ZM16.4015 34.5913H37.2015C38.209 34.5913 39.0053 33.6813 38.8103 32.7063C37.754 27.4576 32.2778 24.8251 26.8015 24.8251C21.3253 24.8251 15.8653 27.4576 14.7928 32.7063C14.5978 33.6813 15.4103 34.5913 16.4015 34.5913ZM37.364 37.8413H16.239C15.3453 37.8413 14.614 38.5726 14.614 39.4663C14.614 40.3601 15.3453 41.0913 16.239 41.0913H37.364C38.2578 41.0913 38.989 40.3601 38.989 39.4663C38.989 38.5726 38.2578 37.8413 37.364 37.8413Z" fill="white"/>
</svg>
