<svg width="23" height="23" viewBox="0 0 23 23" fill="none" xmlns="http://www.w3.org/2000/svg">
<path d="M21.6841 4.40405H17.7841V1.40405C17.7841 0.854053 17.3341 0.404053 16.7841 0.404053C16.2341 0.404053 15.7841 0.854053 15.7841 1.40405V4.40405H11.8841C11.2941 4.40405 10.8341 4.91405 10.8841 5.50405L11.0041 6.71405C14.6841 7.56405 17.7841 10.1741 17.7841 14.4041L17.8041 22.4041H19.5041C20.3441 22.4041 21.0341 21.7541 21.1341 20.9341L22.6741 5.50405C22.7341 4.91405 22.2741 4.40405 21.6841 4.40405ZM14.7841 20.4041H1.78415C1.23415 20.4041 0.784149 20.8541 0.784149 21.4041C0.784149 21.9541 1.23415 22.4041 1.78415 22.4041H14.7841C15.3341 22.4041 15.7841 21.9541 15.7841 21.4041C15.7841 20.8541 15.3341 20.4041 14.7841 20.4041ZM1.88415 14.4041H14.6841C15.3041 14.4041 15.7941 13.8441 15.6741 13.2441C15.0241 10.0141 11.6541 8.39405 8.28415 8.39405C4.91415 8.39405 1.55415 10.0141 0.894149 13.2441C0.774149 13.8441 1.27415 14.4041 1.88415 14.4041ZM14.7841 16.4041H1.78415C1.23415 16.4041 0.784149 16.8541 0.784149 17.4041C0.784149 17.9541 1.23415 18.4041 1.78415 18.4041H14.7841C15.3341 18.4041 15.7841 17.9541 15.7841 17.4041C15.7841 16.8541 15.3341 16.4041 14.7841 16.4041Z" fill="#5EA4B8"/>
</svg>
