<svg width="93" height="38" viewBox="0 0 93 38" fill="none" xmlns="http://www.w3.org/2000/svg">
<rect x="1.28415" y="0.758301" width="91" height="36" rx="12.5" fill="#5EA4B8" stroke="white"/>
<path d="M48.954 12.7133C46.044 12.7133 44.229 13.6583 44.229 15.2633C44.229 16.8533 46.044 17.7983 48.954 17.7983C51.864 17.7983 53.679 16.8533 53.679 15.2633C53.679 13.6583 51.864 12.7133 48.954 12.7133ZM48.954 13.6883C51.084 13.6883 52.419 14.2733 52.419 15.2633C52.419 16.2533 51.084 16.8383 48.954 16.8383C46.824 16.8383 45.489 16.2533 45.489 15.2633C45.489 14.2733 46.824 13.6883 48.954 13.6883ZM44.379 21.2633V25.6883H53.559V21.2633H44.379ZM52.359 22.2383V24.6983H45.579V22.2383H52.359ZM42.879 18.9533V19.9433H55.044V18.9533H42.879ZM64.0428 18.7433C62.0478 18.0533 60.6678 16.2983 60.6678 14.3633V13.0433H59.4378V14.3633C59.4378 16.3733 58.0728 18.2483 56.0478 18.9833L56.6778 19.9583C58.2528 19.3583 59.4828 18.1133 60.0678 16.5233C60.6678 18.0083 61.8828 19.1633 63.4278 19.7183L64.0428 18.7433ZM57.9678 22.1933H65.7378V25.8833H66.9678V21.2033H57.9678V22.1933ZM65.7378 12.4283V20.5133H66.9678V12.4283H65.7378ZM76.9116 18.8933C74.9616 18.2033 73.6416 16.5233 73.6416 14.7683V14.2733H76.5966V13.2683H69.4116V14.2733H72.4116V14.7833C72.4116 16.6883 71.0166 18.4733 69.0216 19.1933L69.6666 20.1533C71.2416 19.5833 72.4716 18.3533 73.0566 16.8083C73.6416 18.1883 74.7966 19.3133 76.2966 19.8533L76.9116 18.8933ZM72.5166 21.9233H78.8616V24.6983H72.5166V21.9233ZM71.3166 25.6883H80.0616V20.9483H71.3166V25.6883ZM78.8166 12.4133V15.7883H76.1616V16.8083H78.8166V20.2883H80.0616V12.4133H78.8166Z" fill="white"/>
<path d="M32.6116 11.7583H28.7116V8.7583C28.7116 8.2083 28.2616 7.7583 27.7116 7.7583C27.1616 7.7583 26.7116 8.2083 26.7116 8.7583V11.7583H22.8116C22.2216 11.7583 21.7616 12.2683 21.8116 12.8583L21.9316 14.0683C25.6116 14.9183 28.7116 17.5283 28.7116 21.7583L28.7316 29.7583H30.4316C31.2716 29.7583 31.9616 29.1083 32.0616 28.2883L33.6016 12.8583C33.6616 12.2683 33.2016 11.7583 32.6116 11.7583ZM25.7116 27.7583H12.7116C12.1616 27.7583 11.7116 28.2083 11.7116 28.7583C11.7116 29.3083 12.1616 29.7583 12.7116 29.7583H25.7116C26.2616 29.7583 26.7116 29.3083 26.7116 28.7583C26.7116 28.2083 26.2616 27.7583 25.7116 27.7583ZM12.8116 21.7583H25.6116C26.2316 21.7583 26.7216 21.1983 26.6016 20.5983C25.9516 17.3683 22.5816 15.7483 19.2116 15.7483C15.8416 15.7483 12.4816 17.3683 11.8216 20.5983C11.7016 21.1983 12.2016 21.7583 12.8116 21.7583ZM25.7116 23.7583H12.7116C12.1616 23.7583 11.7116 24.2083 11.7116 24.7583C11.7116 25.3083 12.1616 25.7583 12.7116 25.7583H25.7116C26.2616 25.7583 26.7116 25.3083 26.7116 24.7583C26.7116 24.2083 26.2616 23.7583 25.7116 23.7583Z" fill="white"/>
</svg>
