<svg width="91" height="36" viewBox="0 0 91 36" fill="none" xmlns="http://www.w3.org/2000/svg">
<rect x="0.76001" y="0.354248" width="90" height="35" rx="12" fill="#5EA4B8"/>
<path d="M47.9298 11.8092C45.0198 11.8092 43.2048 12.7542 43.2048 14.3592C43.2048 15.9492 45.0198 16.8942 47.9298 16.8942C50.8398 16.8942 52.6548 15.9492 52.6548 14.3592C52.6548 12.7542 50.8398 11.8092 47.9298 11.8092ZM47.9298 12.7842C50.0598 12.7842 51.3948 13.3692 51.3948 14.3592C51.3948 15.3492 50.0598 15.9342 47.9298 15.9342C45.7998 15.9342 44.4648 15.3492 44.4648 14.3592C44.4648 13.3692 45.7998 12.7842 47.9298 12.7842ZM43.3548 20.3592V24.7842H52.5348V20.3592H43.3548ZM51.3348 21.3342V23.7942H44.5548V21.3342H51.3348ZM41.8548 18.0492V19.0392H54.0198V18.0492H41.8548ZM63.0186 17.8392C61.0236 17.1492 59.6436 15.3942 59.6436 13.4592V12.1392H58.4136V13.4592C58.4136 15.4692 57.0486 17.3442 55.0236 18.0792L55.6536 19.0542C57.2286 18.4542 58.4586 17.2092 59.0436 15.6192C59.6436 17.1042 60.8586 18.2592 62.4036 18.8142L63.0186 17.8392ZM56.9436 21.2892H64.7136V24.9792H65.9436V20.2992H56.9436V21.2892ZM64.7136 11.5242V19.6092H65.9436V11.5242H64.7136ZM75.8875 17.9892C73.9375 17.2992 72.6175 15.6192 72.6175 13.8642V13.3692H75.5725V12.3642H68.3875V13.3692H71.3875V13.8792C71.3875 15.7842 69.9925 17.5692 67.9975 18.2892L68.6425 19.2492C70.2175 18.6792 71.4475 17.4492 72.0325 15.9042C72.6175 17.2842 73.7725 18.4092 75.2725 18.9492L75.8875 17.9892ZM71.4925 21.0192H77.8375V23.7942H71.4925V21.0192ZM70.2925 24.7842H79.0375V20.0442H70.2925V24.7842ZM77.7925 11.5092V14.8842H75.1375V15.9042H77.7925V19.3842H79.0375V11.5092H77.7925Z" fill="white"/>
<path d="M31.5875 10.8542H27.6875V7.85425C27.6875 7.30425 27.2375 6.85425 26.6875 6.85425C26.1375 6.85425 25.6875 7.30425 25.6875 7.85425V10.8542H21.7875C21.1975 10.8542 20.7375 11.3642 20.7875 11.9542L20.9075 13.1642C24.5875 14.0142 27.6875 16.6242 27.6875 20.8542L27.7075 28.8542H29.4075C30.2475 28.8542 30.9375 28.2042 31.0375 27.3842L32.5775 11.9542C32.6375 11.3642 32.1775 10.8542 31.5875 10.8542ZM24.6875 26.8542H11.6875C11.1375 26.8542 10.6875 27.3042 10.6875 27.8542C10.6875 28.4042 11.1375 28.8542 11.6875 28.8542H24.6875C25.2375 28.8542 25.6875 28.4042 25.6875 27.8542C25.6875 27.3042 25.2375 26.8542 24.6875 26.8542ZM11.7875 20.8542H24.5875C25.2075 20.8542 25.6975 20.2942 25.5775 19.6942C24.9275 16.4642 21.5575 14.8442 18.1875 14.8442C14.8175 14.8442 11.4575 16.4642 10.7975 19.6942C10.6775 20.2942 11.1775 20.8542 11.7875 20.8542ZM24.6875 22.8542H11.6875C11.1375 22.8542 10.6875 23.3042 10.6875 23.8542C10.6875 24.4042 11.1375 24.8542 11.6875 24.8542H24.6875C25.2375 24.8542 25.6875 24.4042 25.6875 23.8542C25.6875 23.3042 25.2375 22.8542 24.6875 22.8542Z" fill="white"/>
</svg>
