<svg width="93" height="38" viewBox="0 0 93 38" fill="none" xmlns="http://www.w3.org/2000/svg">
<rect x="1.28415" y="0.689941" width="91" height="36" rx="12.5" fill="#C4C4C4" stroke="white"/>
<path d="M48.954 12.6449C46.044 12.6449 44.229 13.5899 44.229 15.1949C44.229 16.7849 46.044 17.7299 48.954 17.7299C51.864 17.7299 53.679 16.7849 53.679 15.1949C53.679 13.5899 51.864 12.6449 48.954 12.6449ZM48.954 13.6199C51.084 13.6199 52.419 14.2049 52.419 15.1949C52.419 16.1849 51.084 16.7699 48.954 16.7699C46.824 16.7699 45.489 16.1849 45.489 15.1949C45.489 14.2049 46.824 13.6199 48.954 13.6199ZM44.379 21.1949V25.6199H53.559V21.1949H44.379ZM52.359 22.1699V24.6299H45.579V22.1699H52.359ZM42.879 18.8849V19.8749H55.044V18.8849H42.879ZM64.0428 18.6749C62.0478 17.9849 60.6678 16.2299 60.6678 14.2949V12.9749H59.4378V14.2949C59.4378 16.3049 58.0728 18.1799 56.0478 18.9149L56.6778 19.8899C58.2528 19.2899 59.4828 18.0449 60.0678 16.4549C60.6678 17.9399 61.8828 19.0949 63.4278 19.6499L64.0428 18.6749ZM57.9678 22.1249H65.7378V25.8149H66.9678V21.1349H57.9678V22.1249ZM65.7378 12.3599V20.4449H66.9678V12.3599H65.7378ZM76.9116 18.8249C74.9616 18.1349 73.6416 16.4549 73.6416 14.6999V14.2049H76.5966V13.1999H69.4116V14.2049H72.4116V14.7149C72.4116 16.6199 71.0166 18.4049 69.0216 19.1249L69.6666 20.0849C71.2416 19.5149 72.4716 18.2849 73.0566 16.7399C73.6416 18.1199 74.7966 19.2449 76.2966 19.7849L76.9116 18.8249ZM72.5166 21.8549H78.8616V24.6299H72.5166V21.8549ZM71.3166 25.6199H80.0616V20.8799H71.3166V25.6199ZM78.8166 12.3449V15.7199H76.1616V16.7399H78.8166V20.2199H80.0616V12.3449H78.8166Z" fill="white"/>
<path d="M32.6116 11.6899H28.7116V8.68994C28.7116 8.13994 28.2616 7.68994 27.7116 7.68994C27.1616 7.68994 26.7116 8.13994 26.7116 8.68994V11.6899H22.8116C22.2216 11.6899 21.7616 12.1999 21.8116 12.7899L21.9316 13.9999C25.6116 14.8499 28.7116 17.4599 28.7116 21.6899L28.7316 29.6899H30.4316C31.2716 29.6899 31.9616 29.0399 32.0616 28.2199L33.6016 12.7899C33.6616 12.1999 33.2016 11.6899 32.6116 11.6899ZM25.7116 27.6899H12.7116C12.1616 27.6899 11.7116 28.1399 11.7116 28.6899C11.7116 29.2399 12.1616 29.6899 12.7116 29.6899H25.7116C26.2616 29.6899 26.7116 29.2399 26.7116 28.6899C26.7116 28.1399 26.2616 27.6899 25.7116 27.6899ZM12.8116 21.6899H25.6116C26.2316 21.6899 26.7216 21.1299 26.6016 20.5299C25.9516 17.2999 22.5816 15.6799 19.2116 15.6799C15.8416 15.6799 12.4816 17.2999 11.8216 20.5299C11.7016 21.1299 12.2016 21.6899 12.8116 21.6899ZM25.7116 23.6899H12.7116C12.1616 23.6899 11.7116 24.1399 11.7116 24.6899C11.7116 25.2399 12.1616 25.6899 12.7116 25.6899H25.7116C26.2616 25.6899 26.7116 25.2399 26.7116 24.6899C26.7116 24.1399 26.2616 23.6899 25.7116 23.6899Z" fill="white"/>
</svg>
