<svg width="25" height="25" viewBox="0 0 25 25" fill="none" xmlns="http://www.w3.org/2000/svg">
<path d="M22.6841 5.40405H18.7841V2.40405C18.7841 1.85405 18.3341 1.40405 17.7841 1.40405C17.2341 1.40405 16.7841 1.85405 16.7841 2.40405V5.40405H12.8841C12.2941 5.40405 11.8341 5.91405 11.8841 6.50405L12.0041 7.71405C15.6841 8.56405 18.7841 11.1741 18.7841 15.4041L18.8041 23.4041H20.5041C21.3441 23.4041 22.0341 22.7541 22.1341 21.9341L23.6741 6.50405C23.7341 5.91405 23.2741 5.40405 22.6841 5.40405V5.40405ZM15.7841 21.4041H2.78415C2.23415 21.4041 1.78415 21.8541 1.78415 22.4041C1.78415 22.9541 2.23415 23.4041 2.78415 23.4041H15.7841C16.3341 23.4041 16.7841 22.9541 16.7841 22.4041C16.7841 21.8541 16.3341 21.4041 15.7841 21.4041ZM2.88415 15.4041H15.6841C16.3041 15.4041 16.7941 14.8441 16.6741 14.2441C16.0241 11.0141 12.6541 9.39405 9.28415 9.39405C5.91415 9.39405 2.55415 11.0141 1.89415 14.2441C1.77415 14.8441 2.27415 15.4041 2.88415 15.4041V15.4041ZM15.7841 17.4041H2.78415C2.23415 17.4041 1.78415 17.8541 1.78415 18.4041C1.78415 18.9541 2.23415 19.4041 2.78415 19.4041H15.7841C16.3341 19.4041 16.7841 18.9541 16.7841 18.4041C16.7841 17.8541 16.3341 17.4041 15.7841 17.4041Z" fill="#5EA4B8"/>
</svg>
