<svg width="24" height="25" viewBox="0 0 24 25" fill="none" xmlns="http://www.w3.org/2000/svg">
<path d="M18.5316 2.42651H5.00189C3.93885 2.42651 3.06908 3.32651 3.06908 4.42651V18.4265C3.06908 19.5265 3.93885 20.4265 5.00189 20.4265H8.86752L11.0806 22.7165C11.4575 23.1065 12.0663 23.1065 12.4432 22.7165L14.666 20.4265H18.5316C19.5946 20.4265 20.4644 19.5265 20.4644 18.4265V4.42651C20.4644 3.32651 19.5946 2.42651 18.5316 2.42651ZM13.5836 13.3065L11.7667 17.4265L9.9499 13.3065L5.9683 11.4265L9.9499 9.54651L11.7667 5.42651L13.5836 9.54651L17.5652 11.4265L13.5836 13.3065Z" fill="#5EA4B8"/>
</svg>
