<svg width="24" height="25" viewBox="0 0 24 25" fill="none" xmlns="http://www.w3.org/2000/svg">
<path d="M18.5316 2.3584H5.00189C3.93885 2.3584 3.06908 3.2584 3.06908 4.3584V18.3584C3.06908 19.4584 3.93885 20.3584 5.00189 20.3584H8.86752L11.0806 22.6484C11.4575 23.0384 12.0663 23.0384 12.4432 22.6484L14.666 20.3584H18.5316C19.5946 20.3584 20.4644 19.4584 20.4644 18.3584V4.3584C20.4644 3.2584 19.5946 2.3584 18.5316 2.3584ZM13.5836 13.2384L11.7667 17.3584L9.9499 13.2384L5.9683 11.3584L9.9499 9.4784L11.7667 5.3584L13.5836 9.4784L17.5652 11.3584L13.5836 13.2384Z" fill="#FE7762"/>
</svg>
